<svg xmlns="http://www.w3.org/2000/svg" width="216.383" height="93.788" viewBox="0 0 216.383 93.788">
  <g id="Group_1" data-name="Group 1" transform="translate(-302.208 -392.425)">
    <path id="Path_1" data-name="Path 1" d="M701.792,454.922c0-26.349-25.762-20.339-29.1-19.222a.626.626,0,0,0-.426.6v6.71a.632.632,0,0,0,.787.61c18.317-4.514,19.765,8.421,19.852,11.509a.628.628,0,0,1-.63.646H671.268a.63.63,0,0,0-.63.63v7.231a.63.63,0,0,0,.63.63h29.894a.63.63,0,0,0,.63-.63Z" transform="translate(-207.824 -23.635)" fill="#121212"/>
    <path id="Path_2" data-name="Path 2" d="M608.156,445.452a15.289,15.289,0,0,0-15.236-12.658,15.5,15.5,0,0,0,0,31q.759,0,1.5-.072a.7.7,0,0,1,.656,1.1l-6.713,9.948a.707.707,0,0,0,.586,1.1h7.742a.7.7,0,0,0,.545-.256C598.943,473.533,610.258,459.12,608.156,445.452Zm-15.312,9.4h0a6.908,6.908,0,0,1-6.673-5.69,6.574,6.574,0,0,1,8.289-7.192,6.936,6.936,0,0,1,4.773,6.353v.122A6.394,6.394,0,0,1,592.844,454.855Z" transform="translate(-155.241 -22.771)" fill="#121212"/>
    <path id="Path_3" data-name="Path 3" d="M432.425,448.841a15.152,15.152,0,1,0-29.283,5.466l0,0,.384.977H390.2a1.374,1.374,0,0,1-1.374-1.35l-.336-18.9a1.374,1.374,0,0,0-1.374-1.35H380.9a1.374,1.374,0,0,0-1.374,1.378l.057,18.837a1.374,1.374,0,0,1-1.376,1.378l-26.639-.039a6.4,6.4,0,0,1-1.145-12.7,1.378,1.378,0,0,0,1.145-1.352v-6.255a1.382,1.382,0,0,0-1.529-1.368,15.349,15.349,0,0,0,1.529,30.622s66.339.016,66.62,0A15.3,15.3,0,0,0,432.425,448.841Zm-15.149-6.446a6.462,6.462,0,1,1-6.011,6.446A6.239,6.239,0,0,1,417.276,442.395Z" transform="translate(-19.186 -23.204)" fill="#121212"/>
    <path id="Path_4" data-name="Path 4" d="M513.561,401.246a4.444,4.444,0,1,0-3.627-3.627A4.447,4.447,0,0,0,513.561,401.246Z" transform="translate(-117.139 0)" fill="#121212"/>
    <circle id="Ellipse_1" data-name="Ellipse 1" cx="4.441" cy="4.441" r="4.441" transform="translate(397.784 400.48)" fill="#121212"/>
    <circle id="Ellipse_2" data-name="Ellipse 2" cx="4.441" cy="4.441" r="4.441" transform="translate(387.638 400.48)" fill="#121212"/>
    <circle id="Ellipse_3" data-name="Ellipse 3" cx="4.441" cy="4.441" r="4.441" transform="translate(346.962 410.289)" fill="#121212"/>
    <circle id="Ellipse_4" data-name="Ellipse 4" cx="4.441" cy="4.441" r="4.441" transform="translate(336.815 410.289)" fill="#121212"/>
    <path id="Path_5" data-name="Path 5" d="M329.508,527.273h-27.3v35.005h24.1s18.485-.589,18.485-17.5S329.508,527.273,329.508,527.273Zm-.932,27.427H312.505a.889.889,0,0,1-.889-.889V536a.889.889,0,0,1,.889-.889h16.071a10.082,10.082,0,0,1,0,19.589Z" transform="translate(0 -76.065)" fill="#121212"/>
    <path id="Path_6" data-name="Path 6" d="M459.462,541.429h-6.531a.691.691,0,0,0-.691.691v19.8a1.453,1.453,0,0,1-1.453,1.453H436.058a1.453,1.453,0,0,1-1.453-1.453v-19.8a.691.691,0,0,0-.69-.691h-7.055a.691.691,0,0,0-.69.691v22.6a5.273,5.273,0,0,0,3.077,4.843,8.548,8.548,0,0,0,3.5.7h23.121s4.288-1,4.288-4.288V542.12A.691.691,0,0,0,459.462,541.429Z" transform="translate(-69.924 -84.05)" fill="#121212"/>
    <path id="Path_7" data-name="Path 7" d="M562.434,541.429h-5.821a1.379,1.379,0,0,0-1.2.691L546.165,558.2a1.1,1.1,0,0,1-1.9.02L534.533,542.1a1.378,1.378,0,0,0-1.18-.666h-6.536a1.379,1.379,0,0,0-1.17,2.108l16.648,26.726h5.8l15.53-26.763A1.379,1.379,0,0,0,562.434,541.429Z" transform="translate(-125.919 -84.05)" fill="#121212"/>
    <path id="Path_8" data-name="Path 8" d="M662.582,541.429H632.8a.816.816,0,0,0-.816.816v27.2a.816.816,0,0,0,.816.816h29.784a.816.816,0,0,0,.816-.816v-4.9a.816.816,0,0,0-.816-.816H641.615a.816.816,0,0,1-.816-.816v-3.789a.816.816,0,0,1,.816-.816h10.974a.816.816,0,0,0,.816-.816V553.12a.816.816,0,0,0-.816-.816H641.68a.816.816,0,0,1-.816-.816v-2.875a.816.816,0,0,1,.816-.816h20.9a.815.815,0,0,0,.816-.816v-4.737A.816.816,0,0,0,662.582,541.429Z" transform="translate(-186.019 -84.05)" fill="#121212"/>
    <path id="Path_9" data-name="Path 9" d="M752.368,541.429H719.44a1.007,1.007,0,0,0-1.007,1.007v4.485a1.007,1.007,0,0,0,1.007,1.007h11.441a1.007,1.007,0,0,1,1.007,1.007v20.322a1.007,1.007,0,0,0,1.007,1.007h6.477a1.007,1.007,0,0,0,1.007-1.007V548.935a1.007,1.007,0,0,1,1.007-1.007h10.983a1.007,1.007,0,0,0,1.007-1.007v-4.485A1.007,1.007,0,0,0,752.368,541.429Z" transform="translate(-234.784 -84.05)" fill="#121212"/>
  </g>
</svg>
